<?xml version="1.0" encoding="utf-8"?>
<!-- Svg Vector Icons : http://www.onlinewebfonts.com/icon -->
<!DOCTYPE svg PUBLIC "-//W3C//DTD SVG 1.1//EN" "http://www.w3.org/Graphics/SVG/1.1/DTD/svg11.dtd">
<svg version="1.1" xmlns="http://www.w3.org/2000/svg" xmlns:xlink="http://www.w3.org/1999/xlink" x="0px" y="0px" viewBox="0 0 1000 1000" enable-background="new 0 0 1000 1000" xml:space="preserve">
<metadata> Svg Vector Icons : http://www.onlinewebfonts.com/icon </metadata>
<g><g transform="translate(0.000000,511.000000) scale(0.100000,-0.100000)"><path style="fill:#FFFFFF;" d="M4646.6,2650.3C3630.5,2540.8,2741.1,2202.8,1775,1557.4c-543.6-363-1092.9-824-1477.1-1235.1L100,107.2L286.3-92.6c101.8-111.4,265.1-272.8,361.1-363c1031.5-941.2,2112.9-1565.5,3192.4-1838.2c449.5-113.3,683.8-142.1,1162.1-142.1c478.3,0,712.6,28.8,1162.1,142.1c966.2,243.9,1911.2,756.8,2871.6,1555.9C9262.3-547.8,9900,74.5,9900,107.2c0,32.7-637.7,655-864.4,845.2C7912,1885.8,6780.6,2442.9,5655,2613.8C5461,2642.6,4806,2667.6,4646.6,2650.3z M5491.7,1931.9c643.5-176.7,1160.2-693.4,1335-1335c53.8-195.9,73-583.9,38.4-791.4c-109.5-685.7-607-1267.7-1269.7-1490.5c-78.8-26.9-211.3-57.6-292-71.1c-207.5-34.6-595.5-15.4-791.4,38.4c-645.4,174.8-1160.2,693.4-1338.8,1346.5c-38.4,138.3-44.2,207.4-44.2,478.3c0,270.8,5.8,340,44.2,478.3c180.6,658.8,703,1183.2,1340.7,1344.6c226.7,57.6,224.7,57.6,535.9,49.9C5272.8,1976.1,5372.6,1964.6,5491.7,1931.9z M2706.5,1228.9c-78.8-153.7-184.4-476.4-222.8-670.4c-34.6-176.7-34.6-726.1,0-902.8c36.5-188.2,144.1-512.9,220.9-672.3c36.5-73,63.4-136.4,61.5-138.3c-1.9-3.8-82.6,38.4-176.7,92.2C2105.3-786,1486.8-328.9,1129.6,16.9l-99.9,94.1l147.9,134.5c247.8,228.6,631.9,528.2,943.1,735.7c278.5,186.3,633.9,399.5,647.3,386.1C2771.9,1365.3,2743,1301.9,2706.5,1228.9z M7671.9,1121.3c380.3-236.3,868.2-608.9,1152.5-877.8l144.1-136.4L8824.3-29.2c-220.9-213.2-612.7-518.6-941.2-737.6c-288.1-192.1-633.9-399.5-647.3-388c-1.9,3.8,25,69.2,63.4,147.9c86.4,172.9,167.1,409.1,213.2,618.5c48,224.7,48,766.4,0,991.1c-46.1,209.4-126.8,445.6-213.2,620.4c-38.4,76.8-69.1,144.1-69.1,147.9C7230.1,1382.6,7466.3,1250,7671.9,1121.3z"/><path style="fill:#FFFFFF;" d="M4838.7,1209.7c-21.1-3.8-74.9-19.2-121-30.7l-82.6-21.1l82.6-36.5c101.8-46.1,217-153.7,268.9-255.5c57.6-109.5,67.2-303.5,25-434.1c-48-140.2-194-286.2-334.2-334.2c-130.6-42.3-324.6-32.7-434.1,25c-101.8,51.9-209.4,167.1-255.5,270.8l-38.4,84.5l-32.7-149.8c-122.9-551.3,205.5-1094.9,777.9-1288.9c146-48,468.7-48,614.7,0c380.3,128.7,631.9,380.3,760.6,760.6c48,146,48,468.7,0,614.7c-126.8,376.5-397.6,647.3-758.7,760.6C5220.9,1203.9,4907.8,1227,4838.7,1209.7z"/></g></g>
</svg>